<?xml version="1.0" encoding="UTF-8" standalone="no"?>
<!DOCTYPE svg PUBLIC "-//W3C//DTD SVG 1.1//EN"
 "http://www.w3.org/Graphics/SVG/1.1/DTD/svg11.dtd">
<!-- Generated by graphviz version 2.40.1 (20161225.0304)
 -->
<!-- Title: gocallvis Pages: 1 -->
<svg width="1066pt" height="472pt"
 viewBox="0.00 0.00 1066.00 471.80" xmlns="http://www.w3.org/2000/svg" xmlns:xlink="http://www.w3.org/1999/xlink">
<g id="graph0" class="graph" transform="scale(1 1) rotate(0) translate(0 471.8)">
<title>gocallvis</title>
<polygon fill="#d3d3d3" stroke="transparent" points="0,0 0,-471.8 1066,-471.8 1066,0 0,0"/>
<text text-anchor="middle" x="106.0126" y="-8.2" font-family="Arial" font-size="14.00" fill="#000000">go_server/cmd/example_server</text>
<g id="clust1" class="cluster">
<title>cluster_focus</title>
<polygon fill="#e6ecfa" stroke="#000000" stroke-width=".5" points="8,-32.8 8,-463.8 1058,-463.8 1058,-32.8 8,-32.8"/>
<text text-anchor="middle" x="533" y="-443.6" font-family="Arial" font-size="18.00" fill="#000000">main</text>
</g>
<g id="clust5" class="cluster">
<title>cluster_reflect</title>
<g id="a_clust5"><a xlink:href="/?f=reflect" xlink:title="package: reflect">
<polygon fill="#e0ffe1" stroke="#000000" stroke-width=".8" points="497,-266 497,-345.2 607,-345.2 607,-266 497,-266"/>
<text text-anchor="middle" x="552" y="-326.8" font-family="Tahoma bold" font-size="16.00" fill="#000000">reflect</text>
</a>
</g>
</g>
<g id="clust4" class="cluster">
<title>cluster_go_server/pkg/serverapp</title>
<g id="a_clust4"><a xlink:href="/?f=go_server/pkg/serverapp" xlink:title="package: go_server/pkg/serverapp">
<polygon fill="#e0ffe1" stroke="#000000" stroke-width=".8" points="315,-266 315,-345.2 489,-345.2 489,-266 315,-266"/>
<text text-anchor="middle" x="402" y="-326.8" font-family="Tahoma bold" font-size="16.00" fill="#000000">go_server/pkg/serverapp</text>
</a>
</g>
</g>
<g id="clust3" class="cluster">
<title>cluster_go_server/pkg/httpserver</title>
<g id="a_clust3"><a xlink:href="/?f=go_server/pkg/httpserver" xlink:title="package: go_server/pkg/httpserver">
<polygon fill="#e0ffe1" stroke="#000000" stroke-width=".8" points="310,-40.8 310,-120 1050,-120 1050,-40.8 310,-40.8"/>
<text text-anchor="middle" x="680" y="-101.6" font-family="Tahoma bold" font-size="16.00" fill="#000000">go_server/pkg/httpserver</text>
</a>
</g>
</g>
<g id="clust2" class="cluster">
<title>cluster_go_server/cmd/example_server/myproject</title>
<g id="a_clust2"><a xlink:href="/?f=go_server/cmd/example_server/myproject" xlink:title="package: go_server/cmd/example_server/myproject">
<polygon fill="#e0ffe1" stroke="#000000" stroke-width=".8" points="16,-40.8 16,-120 302,-120 302,-40.8 16,-40.8"/>
<text text-anchor="middle" x="159" y="-101.6" font-family="Tahoma bold" font-size="16.00" fill="#000000">go_server/cmd/example_server/myproject</text>
</a>
</g>
</g>
<!-- go_server/cmd/example_server.main$1 -->
<g id="node1" class="node">
<title>go_server/cmd/example_server.main$1</title>
<g id="a_node1"><a xlink:title="go_server/cmd/example_server.main$1 | defined in main.go:21&#10;at main.go:35: calling [(*go_server/pkg/httpserver.GoServer).AddDefaultGoServerRoutes]&#10;at main.go:23: calling [go_server/cmd/example_server/myproject.GetManifest]&#10;at main.go:29: calling [(*go_server/pkg/httpserver.GoServer).ScanProjectResources]&#10;at main.go:32: calling [(*go_server/pkg/httpserver.GoServer).InterpretManifest]">
<polygon fill="#add8e6" stroke="#000000" stroke-dasharray="1,5" points="526.9958,-201 461.0042,-201 461.0042,-165 526.9958,-165 526.9958,-201"/>
<text text-anchor="middle" x="494" y="-178.8" font-family="Verdana" font-size="14.00" fill="#000000">main$1</text>
</a>
</g>
</g>
<!-- go_server/cmd/example_server/myproject.GetManifest -->
<g id="node3" class="node">
<title>go_server/cmd/example_server/myproject.GetManifest</title>
<g id="a_node3"><a xlink:title="go_server/cmd/example_server/myproject.GetManifest | defined in myproject.go:10">
<path fill="#adedad" stroke="#000000" stroke-width="1.5" d="M280.972,-84.8C280.972,-84.8 211.028,-84.8 211.028,-84.8 205.028,-84.8 199.028,-78.8 199.028,-72.8 199.028,-72.8 199.028,-60.8 199.028,-60.8 199.028,-54.8 205.028,-48.8 211.028,-48.8 211.028,-48.8 280.972,-48.8 280.972,-48.8 286.972,-48.8 292.972,-54.8 292.972,-60.8 292.972,-60.8 292.972,-72.8 292.972,-72.8 292.972,-78.8 286.972,-84.8 280.972,-84.8"/>
<text text-anchor="middle" x="246" y="-62.6" font-family="Verdana" font-size="14.00" fill="#000000">GetManifest</text>
</a>
</g>
</g>
<!-- go_server/cmd/example_server.main$1&#45;&gt;go_server/cmd/example_server/myproject.GetManifest -->
<g id="edge5" class="edge">
<title>go_server/cmd/example_server.main$1&#45;&gt;go_server/cmd/example_server/myproject.GetManifest</title>
<g id="a_edge5"><a xlink:title="at main.go:23: calling [go_server/cmd/example_server/myproject.GetManifest]">
<path fill="none" stroke="#8b4513" d="M460.9775,-176.5031C421.615,-167.7839 354.7873,-149.8401 304,-120 291.3264,-112.5536 279.0621,-101.971 269.1012,-92.2029"/>
<polygon fill="#8b4513" stroke="#8b4513" points="271.4753,-89.6256 261.9643,-84.9574 266.4883,-94.5378 271.4753,-89.6256"/>
</a>
</g>
</g>
<!-- (*go_server/pkg/httpserver.GoServer).ScanProjectResources -->
<g id="node4" class="node">
<title>(*go_server/pkg/httpserver.GoServer).ScanProjectResources</title>
<g id="a_node4"><a xlink:title="(*go_server/pkg/httpserver.GoServer).ScanProjectResources | defined in routes.go:50">
<path fill="#adedad" stroke="#000000" stroke-width="1.5" d="M527.8564,-84.8C527.8564,-84.8 330.1436,-84.8 330.1436,-84.8 324.1436,-84.8 318.1436,-78.8 318.1436,-72.8 318.1436,-72.8 318.1436,-60.8 318.1436,-60.8 318.1436,-54.8 324.1436,-48.8 330.1436,-48.8 330.1436,-48.8 527.8564,-48.8 527.8564,-48.8 533.8564,-48.8 539.8564,-54.8 539.8564,-60.8 539.8564,-60.8 539.8564,-72.8 539.8564,-72.8 539.8564,-78.8 533.8564,-84.8 527.8564,-84.8"/>
<text text-anchor="middle" x="429" y="-62.6" font-family="Verdana" font-size="14.00" fill="#000000">(*GoServer).ScanProjectResources</text>
</a>
</g>
</g>
<!-- go_server/cmd/example_server.main$1&#45;&gt;(*go_server/pkg/httpserver.GoServer).ScanProjectResources -->
<g id="edge6" class="edge">
<title>go_server/cmd/example_server.main$1&#45;&gt;(*go_server/pkg/httpserver.GoServer).ScanProjectResources</title>
<g id="a_edge6"><a xlink:title="at main.go:29: calling [(*go_server/pkg/httpserver.GoServer).ScanProjectResources]">
<path fill="none" stroke="#8b4513" d="M483.8438,-164.8438C473.1589,-145.7425 456.2289,-115.477 444.0041,-93.6228"/>
<polygon fill="#8b4513" stroke="#8b4513" points="447.0215,-91.8474 439.0849,-84.8288 440.9123,-95.2648 447.0215,-91.8474"/>
</a>
</g>
</g>
<!-- (*go_server/pkg/httpserver.GoServer).InterpretManifest -->
<g id="node5" class="node">
<title>(*go_server/pkg/httpserver.GoServer).InterpretManifest</title>
<g id="a_node5"><a xlink:title="(*go_server/pkg/httpserver.GoServer).InterpretManifest | defined in server.go:133">
<path fill="#adedad" stroke="#000000" stroke-width="1.5" d="M748.9136,-84.8C748.9136,-84.8 577.0864,-84.8 577.0864,-84.8 571.0864,-84.8 565.0864,-78.8 565.0864,-72.8 565.0864,-72.8 565.0864,-60.8 565.0864,-60.8 565.0864,-54.8 571.0864,-48.8 577.0864,-48.8 577.0864,-48.8 748.9136,-48.8 748.9136,-48.8 754.9136,-48.8 760.9136,-54.8 760.9136,-60.8 760.9136,-60.8 760.9136,-72.8 760.9136,-72.8 760.9136,-78.8 754.9136,-84.8 748.9136,-84.8"/>
<text text-anchor="middle" x="663" y="-62.6" font-family="Verdana" font-size="14.00" fill="#000000">(*GoServer).InterpretManifest</text>
</a>
</g>
</g>
<!-- go_server/cmd/example_server.main$1&#45;&gt;(*go_server/pkg/httpserver.GoServer).InterpretManifest -->
<g id="edge7" class="edge">
<title>go_server/cmd/example_server.main$1&#45;&gt;(*go_server/pkg/httpserver.GoServer).InterpretManifest</title>
<g id="a_edge7"><a xlink:title="at main.go:32: calling [(*go_server/pkg/httpserver.GoServer).InterpretManifest]">
<path fill="none" stroke="#8b4513" d="M520.4063,-164.8438C549.4272,-144.8897 596.1673,-112.7524 628.1704,-90.7479"/>
<polygon fill="#8b4513" stroke="#8b4513" points="630.522,-93.3786 636.7792,-84.8288 626.556,-87.6104 630.522,-93.3786"/>
</a>
</g>
</g>
<!-- (*go_server/pkg/httpserver.GoServer).AddDefaultGoServerRoutes -->
<g id="node6" class="node">
<title>(*go_server/pkg/httpserver.GoServer).AddDefaultGoServerRoutes</title>
<g id="a_node6"><a xlink:title="(*go_server/pkg/httpserver.GoServer).AddDefaultGoServerRoutes | defined in routes.go:98">
<path fill="#adedad" stroke="#000000" stroke-width="1.5" d="M1030.071,-84.8C1030.071,-84.8 797.929,-84.8 797.929,-84.8 791.929,-84.8 785.929,-78.8 785.929,-72.8 785.929,-72.8 785.929,-60.8 785.929,-60.8 785.929,-54.8 791.929,-48.8 797.929,-48.8 797.929,-48.8 1030.071,-48.8 1030.071,-48.8 1036.071,-48.8 1042.071,-54.8 1042.071,-60.8 1042.071,-60.8 1042.071,-72.8 1042.071,-72.8 1042.071,-78.8 1036.071,-84.8 1030.071,-84.8"/>
<text text-anchor="middle" x="914" y="-62.6" font-family="Verdana" font-size="14.00" fill="#000000">(*GoServer).AddDefaultGoServerRoutes</text>
</a>
</g>
</g>
<!-- go_server/cmd/example_server.main$1&#45;&gt;(*go_server/pkg/httpserver.GoServer).AddDefaultGoServerRoutes -->
<g id="edge1" class="edge">
<title>go_server/cmd/example_server.main$1&#45;&gt;(*go_server/pkg/httpserver.GoServer).AddDefaultGoServerRoutes</title>
<g id="a_edge1"><a xlink:title="at main.go:35: calling [(*go_server/pkg/httpserver.GoServer).AddDefaultGoServerRoutes]">
<path fill="none" stroke="#8b4513" d="M527.026,-177.0829C579.6404,-167.3131 685.4839,-146.2528 773,-120 802.6848,-111.0952 835.0867,-99.0411 861.3358,-88.6585"/>
<polygon fill="#8b4513" stroke="#8b4513" points="862.7205,-91.8743 870.7117,-84.9179 860.1266,-85.3727 862.7205,-91.8743"/>
</a>
</g>
</g>
<!-- go_server/cmd/example_server.main -->
<g id="node2" class="node">
<title>go_server/cmd/example_server.main</title>
<g id="a_node2"><a xlink:title="go_server/cmd/example_server.main | defined in main.go:10&#10;at main.go:42: calling [go_server/pkg/serverapp.Run]">
<path fill="#add8e6" stroke="#000000" stroke-width=".5" d="M468,-426.2C468,-426.2 438,-426.2 438,-426.2 432,-426.2 426,-420.2 426,-414.2 426,-414.2 426,-402.2 426,-402.2 426,-396.2 432,-390.2 438,-390.2 438,-390.2 468,-390.2 468,-390.2 474,-390.2 480,-396.2 480,-402.2 480,-402.2 480,-414.2 480,-414.2 480,-420.2 474,-426.2 468,-426.2"/>
<text text-anchor="middle" x="453" y="-404" font-family="Verdana" font-size="14.00" fill="#000000">main</text>
</a>
</g>
</g>
<!-- go_server/pkg/serverapp.Run -->
<g id="node7" class="node">
<title>go_server/pkg/serverapp.Run</title>
<g id="a_node7"><a xlink:title="go_server/pkg/serverapp.Run | defined in serverapp.go:80&#10;at serverapp.go:128: calling [go_server/cmd/example_server.main$1]">
<path fill="#adedad" stroke="#000000" stroke-width="1.5" d="M468,-310C468,-310 438,-310 438,-310 432,-310 426,-304 426,-298 426,-298 426,-286 426,-286 426,-280 432,-274 438,-274 438,-274 468,-274 468,-274 474,-274 480,-280 480,-286 480,-286 480,-298 480,-298 480,-304 474,-310 468,-310"/>
<text text-anchor="middle" x="453" y="-287.8" font-family="Verdana" font-size="14.00" fill="#000000">Run</text>
</a>
</g>
</g>
<!-- go_server/cmd/example_server.main&#45;&gt;go_server/pkg/serverapp.Run -->
<g id="edge4" class="edge">
<title>go_server/cmd/example_server.main&#45;&gt;go_server/pkg/serverapp.Run</title>
<g id="a_edge4"><a xlink:title="at main.go:42: calling [go_server/pkg/serverapp.Run]">
<path fill="none" stroke="#8b4513" d="M453,-390.0438C453,-371.3688 453,-342.0225 453,-320.2986"/>
<polygon fill="#8b4513" stroke="#8b4513" points="456.5001,-320.0287 453,-310.0288 449.5001,-320.0288 456.5001,-320.0287"/>
</a>
</g>
</g>
<!-- go_server/pkg/serverapp.Run&#45;&gt;go_server/cmd/example_server.main$1 -->
<g id="edge3" class="edge">
<title>go_server/pkg/serverapp.Run&#45;&gt;go_server/cmd/example_server.main$1</title>
<g id="a_edge3"><a xlink:title="at serverapp.go:128: calling [go_server/cmd/example_server.main$1]">
<path fill="none" stroke="#8b4513" stroke-dasharray="5,2" d="M459.9551,-273.5096C466.4439,-256.2589 476.2098,-230.2959 483.6204,-210.5945"/>
<polygon fill="#8b4513" stroke="#8b4513" points="486.9028,-211.8093 487.1476,-201.2173 480.351,-209.3448 486.9028,-211.8093"/>
</a>
</g>
</g>
<!-- (reflect.Value).Call -->
<g id="node8" class="node">
<title>(reflect.Value).Call</title>
<g id="a_node8"><a xlink:title="(reflect.Value).Call | defined in value.go:366&#10;at .:0: calling [go_server/cmd/example_server.main$1]">
<path fill="#adedad" stroke="#000000" stroke-width="1.5" d="M586.5809,-310C586.5809,-310 517.4191,-310 517.4191,-310 511.4191,-310 505.4191,-304 505.4191,-298 505.4191,-298 505.4191,-286 505.4191,-286 505.4191,-280 511.4191,-274 517.4191,-274 517.4191,-274 586.5809,-274 586.5809,-274 592.5809,-274 598.5809,-280 598.5809,-286 598.5809,-286 598.5809,-298 598.5809,-298 598.5809,-304 592.5809,-310 586.5809,-310"/>
<text text-anchor="middle" x="552" y="-287.8" font-family="Verdana" font-size="14.00" fill="#000000">(Value).Call</text>
</a>
</g>
</g>
<!-- (reflect.Value).Call&#45;&gt;go_server/cmd/example_server.main$1 -->
<g id="edge2" class="edge">
<title>(reflect.Value).Call&#45;&gt;go_server/cmd/example_server.main$1</title>
<g id="a_edge2"><a xlink:title="at .:0: calling [go_server/cmd/example_server.main$1]">
<path fill="none" stroke="#8b4513" d="M542.1611,-273.5096C532.898,-256.1014 518.9139,-229.8209 508.3969,-210.0563"/>
<polygon fill="#8b4513" stroke="#8b4513" points="511.4809,-208.4012 503.6936,-201.2173 505.3013,-211.6894 511.4809,-208.4012"/>
</a>
</g>
</g>
</g>
</svg>
