<?xml version="1.0" encoding="UTF-8" standalone="no"?>
<!DOCTYPE svg PUBLIC "-//W3C//DTD SVG 1.1//EN"
 "http://www.w3.org/Graphics/SVG/1.1/DTD/svg11.dtd">
<!-- Generated by graphviz version 2.40.1 (20161225.0304)
 -->
<!-- Title: gocallvis Pages: 1 -->
<svg width="1445pt" height="398pt"
 viewBox="0.00 0.00 1445.00 398.00" xmlns="http://www.w3.org/2000/svg" xmlns:xlink="http://www.w3.org/1999/xlink">
<g id="graph0" class="graph" transform="scale(1 1) rotate(0) translate(0 398)">
<title>gocallvis</title>
<polygon fill="#d3d3d3" stroke="transparent" points="0,0 0,-398 1445,-398 1445,0 0,0"/>
<text text-anchor="middle" x="97.0596" y="-8.2" font-family="Arial" font-size="14.00" fill="#000000">go_server/examples/minimal</text>
<g id="clust1" class="cluster">
<title>cluster_focus</title>
<polygon fill="#e6ecfa" stroke="#000000" stroke-width=".5" points="8,-32.8 8,-390 1437,-390 1437,-32.8 8,-32.8"/>
<text text-anchor="middle" x="722.5" y="-369.8" font-family="Arial" font-size="18.00" fill="#000000">main</text>
</g>
<g id="clust7" class="cluster">
<title>cluster_reflect</title>
<g id="a_clust7"><a xlink:href="/?f=reflect" xlink:title="package: reflect">
<polygon fill="#e0ffe1" stroke="#000000" stroke-width=".8" points="1319,-273.2 1319,-352.4 1429,-352.4 1429,-273.2 1319,-273.2"/>
<text text-anchor="middle" x="1374" y="-334" font-family="Tahoma bold" font-size="16.00" fill="#000000">reflect</text>
</a>
</g>
</g>
<g id="clust6" class="cluster">
<title>cluster_os</title>
<g id="a_clust6"><a xlink:href="/?f=os" xlink:title="package: os">
<polygon fill="#e0ffe1" stroke="#000000" stroke-width=".8" points="1276,-157 1276,-236.2 1346,-236.2 1346,-157 1276,-157"/>
<text text-anchor="middle" x="1311" y="-217.8" font-family="Tahoma bold" font-size="16.00" fill="#000000">os</text>
</a>
</g>
</g>
<g id="clust5" class="cluster">
<title>cluster_net/http</title>
<g id="a_clust5"><a xlink:href="/?f=net/http" xlink:title="package: net/http">
<polygon fill="#e0ffe1" stroke="#000000" stroke-width=".8" points="892,-273.2 892,-352.4 1310,-352.4 1310,-273.2 892,-273.2"/>
<text text-anchor="middle" x="1101" y="-334" font-family="Tahoma bold" font-size="16.00" fill="#000000">net/http</text>
</a>
</g>
</g>
<g id="clust4" class="cluster">
<title>cluster_log/slog</title>
<g id="a_clust4"><a xlink:href="/?f=log/slog" xlink:title="package: log/slog">
<polygon fill="#e0ffe1" stroke="#000000" stroke-width=".8" points="778,-157 778,-236.2 1267,-236.2 1267,-157 778,-157"/>
<text text-anchor="middle" x="1022.5" y="-217.8" font-family="Tahoma bold" font-size="16.00" fill="#000000">log/slog</text>
</a>
</g>
</g>
<g id="clust3" class="cluster">
<title>cluster_go_server/pkg/httpserver</title>
<g id="a_clust3"><a xlink:href="/?f=go_server/pkg/httpserver" xlink:title="package: go_server/pkg/httpserver">
<polygon fill="#e0ffe1" stroke="#000000" stroke-width=".8" points="16,-157 16,-236.2 769,-236.2 769,-157 16,-157"/>
<text text-anchor="middle" x="392.5" y="-217.8" font-family="Tahoma bold" font-size="16.00" fill="#000000">go_server/pkg/httpserver</text>
</a>
</g>
</g>
<g id="clust2" class="cluster">
<title>cluster_fmt</title>
<g id="a_clust2"><a xlink:href="/?f=fmt" xlink:title="package: fmt">
<polygon fill="#e0ffe1" stroke="#000000" stroke-width=".8" points="1343,-40.8 1343,-120 1429,-120 1429,-40.8 1343,-40.8"/>
<text text-anchor="middle" x="1386" y="-101.6" font-family="Tahoma bold" font-size="16.00" fill="#000000">fmt</text>
</a>
</g>
</g>
<!-- go_server/examples/minimal.main$1 -->
<g id="node1" class="node">
<title>go_server/examples/minimal.main$1</title>
<g id="a_node1"><a xlink:title="go_server/examples/minimal.main$1 | defined in main.go:19&#10;at main.go:20: calling [fmt.Fprintln]">
<polygon fill="#add8e6" stroke="#000000" stroke-dasharray="1,5" points="1428.9958,-201 1363.0042,-201 1363.0042,-165 1428.9958,-165 1428.9958,-201"/>
<text text-anchor="middle" x="1396" y="-178.8" font-family="Verdana" font-size="14.00" fill="#000000">main$1</text>
</a>
</g>
</g>
<!-- fmt.Fprintln -->
<g id="node3" class="node">
<title>fmt.Fprintln</title>
<g id="a_node3"><a xlink:title="fmt.Fprintln | defined in print.go:303">
<path fill="#adedad" stroke="#000000" stroke-width="1.5" d="M1408.6151,-84.8C1408.6151,-84.8 1363.3849,-84.8 1363.3849,-84.8 1357.3849,-84.8 1351.3849,-78.8 1351.3849,-72.8 1351.3849,-72.8 1351.3849,-60.8 1351.3849,-60.8 1351.3849,-54.8 1357.3849,-48.8 1363.3849,-48.8 1363.3849,-48.8 1408.6151,-48.8 1408.6151,-48.8 1414.6151,-48.8 1420.6151,-54.8 1420.6151,-60.8 1420.6151,-60.8 1420.6151,-72.8 1420.6151,-72.8 1420.6151,-78.8 1414.6151,-84.8 1408.6151,-84.8"/>
<text text-anchor="middle" x="1386" y="-62.6" font-family="Verdana" font-size="14.00" fill="#000000">Fprintln</text>
</a>
</g>
</g>
<!-- go_server/examples/minimal.main$1&#45;&gt;fmt.Fprintln -->
<g id="edge8" class="edge">
<title>go_server/examples/minimal.main$1&#45;&gt;fmt.Fprintln</title>
<g id="a_edge8"><a xlink:title="at main.go:20: calling [fmt.Fprintln]">
<path fill="none" stroke="#8b4513" d="M1394.4375,-164.8438C1392.823,-146.0835 1390.2818,-116.5543 1388.4098,-94.8015"/>
<polygon fill="#8b4513" stroke="#8b4513" points="1391.8961,-94.4918 1387.5515,-84.8288 1384.9219,-95.0921 1391.8961,-94.4918"/>
</a>
</g>
</g>
<!-- go_server/examples/minimal.main -->
<g id="node2" class="node">
<title>go_server/examples/minimal.main</title>
<g id="a_node2"><a xlink:title="go_server/examples/minimal.main | defined in main.go:12&#10;at main.go:15: calling [go_server/pkg/httpserver.NewGoServer]&#10;at main.go:19: calling [(*go_server/pkg/httpserver.GoServer).RegisterRoute]&#10;at main.go:22: calling [(*go_server/pkg/httpserver.GoServer).AddDefaultGoServerRoutes]&#10;at main.go:24: calling [(*log/slog.Logger).Info]&#10;at main.go:25: calling [(*go_server/pkg/httpserver.GoServer).Start]&#10;at main.go:13: calling [log/slog.NewTextHandler]&#10;at main.go:13: calling [log/slog.New]&#10;at main.go:26: calling [(*log/slog.Logger).Error]&#10;at main.go:27: calling [os.Exit]">
<path fill="#add8e6" stroke="#000000" stroke-width=".5" d="M862,-317.2C862,-317.2 832,-317.2 832,-317.2 826,-317.2 820,-311.2 820,-305.2 820,-305.2 820,-293.2 820,-293.2 820,-287.2 826,-281.2 832,-281.2 832,-281.2 862,-281.2 862,-281.2 868,-281.2 874,-287.2 874,-293.2 874,-293.2 874,-305.2 874,-305.2 874,-311.2 868,-317.2 862,-317.2"/>
<text text-anchor="middle" x="847" y="-295" font-family="Verdana" font-size="14.00" fill="#000000">main</text>
</a>
</g>
</g>
<!-- go_server/pkg/httpserver.NewGoServer -->
<g id="node4" class="node">
<title>go_server/pkg/httpserver.NewGoServer</title>
<g id="a_node4"><a xlink:title="go_server/pkg/httpserver.NewGoServer | defined in server.go:71">
<path fill="#adedad" stroke="#000000" stroke-width="1.5" d="M116.0674,-201C116.0674,-201 35.9326,-201 35.9326,-201 29.9326,-201 23.9326,-195 23.9326,-189 23.9326,-189 23.9326,-177 23.9326,-177 23.9326,-171 29.9326,-165 35.9326,-165 35.9326,-165 116.0674,-165 116.0674,-165 122.0674,-165 128.0674,-171 128.0674,-177 128.0674,-177 128.0674,-189 128.0674,-189 128.0674,-195 122.0674,-201 116.0674,-201"/>
<text text-anchor="middle" x="76" y="-178.8" font-family="Verdana" font-size="14.00" fill="#000000">NewGoServer</text>
</a>
</g>
</g>
<!-- go_server/examples/minimal.main&#45;&gt;go_server/pkg/httpserver.NewGoServer -->
<g id="edge3" class="edge">
<title>go_server/examples/minimal.main&#45;&gt;go_server/pkg/httpserver.NewGoServer</title>
<g id="a_edge3"><a xlink:title="at main.go:15: calling [go_server/pkg/httpserver.NewGoServer]">
<path fill="none" stroke="#8b4513" d="M819.6405,-298.8924C705.515,-297.2854 267.4679,-287.8084 141,-236.2 125.6419,-229.9327 111.0989,-218.7315 99.6788,-208.2184"/>
<polygon fill="#8b4513" stroke="#8b4513" points="101.9328,-205.5301 92.2999,-201.119 97.0796,-210.5745 101.9328,-205.5301"/>
</a>
</g>
</g>
<!-- (*go_server/pkg/httpserver.GoServer).RegisterRoute -->
<g id="node5" class="node">
<title>(*go_server/pkg/httpserver.GoServer).RegisterRoute</title>
<g id="a_node5"><a xlink:title="(*go_server/pkg/httpserver.GoServer).RegisterRoute | defined in server.go:123">
<path fill="#adedad" stroke="#000000" stroke-width="1.5" d="M318.5554,-201C318.5554,-201 165.4446,-201 165.4446,-201 159.4446,-201 153.4446,-195 153.4446,-189 153.4446,-189 153.4446,-177 153.4446,-177 153.4446,-171 159.4446,-165 165.4446,-165 165.4446,-165 318.5554,-165 318.5554,-165 324.5554,-165 330.5554,-171 330.5554,-177 330.5554,-177 330.5554,-189 330.5554,-189 330.5554,-195 324.5554,-201 318.5554,-201"/>
<text text-anchor="middle" x="242" y="-178.8" font-family="Verdana" font-size="14.00" fill="#000000">(*GoServer).RegisterRoute</text>
</a>
</g>
</g>
<!-- go_server/examples/minimal.main&#45;&gt;(*go_server/pkg/httpserver.GoServer).RegisterRoute -->
<g id="edge4" class="edge">
<title>go_server/examples/minimal.main&#45;&gt;(*go_server/pkg/httpserver.GoServer).RegisterRoute</title>
<g id="a_edge4"><a xlink:title="at main.go:19: calling [(*go_server/pkg/httpserver.GoServer).RegisterRoute]">
<path fill="none" stroke="#8b4513" d="M819.9543,-297.108C728.8251,-289.8589 433.6417,-264.6942 343,-236.2 320.4158,-229.1004 296.9173,-217.0432 278.2749,-206.2007"/>
<polygon fill="#8b4513" stroke="#8b4513" points="279.922,-203.1082 269.5385,-201.0027 276.3427,-209.1239 279.922,-203.1082"/>
</a>
</g>
</g>
<!-- (*go_server/pkg/httpserver.GoServer).AddDefaultGoServerRoutes -->
<g id="node6" class="node">
<title>(*go_server/pkg/httpserver.GoServer).AddDefaultGoServerRoutes</title>
<g id="a_node6"><a xlink:title="(*go_server/pkg/httpserver.GoServer).AddDefaultGoServerRoutes | defined in routes.go:98">
<path fill="#adedad" stroke="#000000" stroke-width="1.5" d="M600.071,-201C600.071,-201 367.929,-201 367.929,-201 361.929,-201 355.929,-195 355.929,-189 355.929,-189 355.929,-177 355.929,-177 355.929,-171 361.929,-165 367.929,-165 367.929,-165 600.071,-165 600.071,-165 606.071,-165 612.071,-171 612.071,-177 612.071,-177 612.071,-189 612.071,-189 612.071,-195 606.071,-201 600.071,-201"/>
<text text-anchor="middle" x="484" y="-178.8" font-family="Verdana" font-size="14.00" fill="#000000">(*GoServer).AddDefaultGoServerRoutes</text>
</a>
</g>
</g>
<!-- go_server/examples/minimal.main&#45;&gt;(*go_server/pkg/httpserver.GoServer).AddDefaultGoServerRoutes -->
<g id="edge5" class="edge">
<title>go_server/examples/minimal.main&#45;&gt;(*go_server/pkg/httpserver.GoServer).AddDefaultGoServerRoutes</title>
<g id="a_edge5"><a xlink:title="at main.go:22: calling [(*go_server/pkg/httpserver.GoServer).AddDefaultGoServerRoutes]">
<path fill="none" stroke="#8b4513" d="M819.7796,-292.267C777.6943,-281.3706 694.4352,-259.1063 625,-236.2 596.2484,-226.715 564.6801,-214.9349 538.716,-204.8726"/>
<polygon fill="#8b4513" stroke="#8b4513" points="539.6454,-201.4785 529.057,-201.1086 537.1037,-208.0007 539.6454,-201.4785"/>
</a>
</g>
</g>
<!-- (*go_server/pkg/httpserver.GoServer).Start -->
<g id="node7" class="node">
<title>(*go_server/pkg/httpserver.GoServer).Start</title>
<g id="a_node7"><a xlink:title="(*go_server/pkg/httpserver.GoServer).Start | defined in server.go:230">
<path fill="#adedad" stroke="#000000" stroke-width="1.5" d="M748.8998,-201C748.8998,-201 649.1002,-201 649.1002,-201 643.1002,-201 637.1002,-195 637.1002,-189 637.1002,-189 637.1002,-177 637.1002,-177 637.1002,-171 643.1002,-165 649.1002,-165 649.1002,-165 748.8998,-165 748.8998,-165 754.8998,-165 760.8998,-171 760.8998,-177 760.8998,-177 760.8998,-189 760.8998,-189 760.8998,-195 754.8998,-201 748.8998,-201"/>
<text text-anchor="middle" x="699" y="-178.8" font-family="Verdana" font-size="14.00" fill="#000000">(*GoServer).Start</text>
</a>
</g>
</g>
<!-- go_server/examples/minimal.main&#45;&gt;(*go_server/pkg/httpserver.GoServer).Start -->
<g id="edge7" class="edge">
<title>go_server/examples/minimal.main&#45;&gt;(*go_server/pkg/httpserver.GoServer).Start</title>
<g id="a_edge7"><a xlink:title="at main.go:25: calling [(*go_server/pkg/httpserver.GoServer).Start]">
<path fill="none" stroke="#8b4513" d="M823.875,-281.0438C798.5688,-261.175 757.8776,-229.2269 729.8617,-207.2306"/>
<polygon fill="#8b4513" stroke="#8b4513" points="731.9894,-204.4513 721.9626,-201.0288 727.6666,-209.9571 731.9894,-204.4513"/>
</a>
</g>
</g>
<!-- log/slog.NewTextHandler -->
<g id="node8" class="node">
<title>log/slog.NewTextHandler</title>
<g id="a_node8"><a xlink:title="log/slog.NewTextHandler | defined in text_handler.go:28">
<path fill="#adedad" stroke="#000000" stroke-width="1.5" d="M895.6727,-201C895.6727,-201 798.3273,-201 798.3273,-201 792.3273,-201 786.3273,-195 786.3273,-189 786.3273,-189 786.3273,-177 786.3273,-177 786.3273,-171 792.3273,-165 798.3273,-165 798.3273,-165 895.6727,-165 895.6727,-165 901.6727,-165 907.6727,-171 907.6727,-177 907.6727,-177 907.6727,-189 907.6727,-189 907.6727,-195 901.6727,-201 895.6727,-201"/>
<text text-anchor="middle" x="847" y="-178.8" font-family="Verdana" font-size="14.00" fill="#000000">NewTextHandler</text>
</a>
</g>
</g>
<!-- go_server/examples/minimal.main&#45;&gt;log/slog.NewTextHandler -->
<g id="edge9" class="edge">
<title>go_server/examples/minimal.main&#45;&gt;log/slog.NewTextHandler</title>
<g id="a_edge9"><a xlink:title="at main.go:13: calling [log/slog.NewTextHandler]">
<path fill="none" stroke="#8b4513" d="M847,-281.0438C847,-262.3688 847,-233.0225 847,-211.2986"/>
<polygon fill="#8b4513" stroke="#8b4513" points="850.5001,-211.0287 847,-201.0288 843.5001,-211.0288 850.5001,-211.0287"/>
</a>
</g>
</g>
<!-- log/slog.New -->
<g id="node9" class="node">
<title>log/slog.New</title>
<g id="a_node9"><a xlink:title="log/slog.New | defined in logger.go:151">
<path fill="#adedad" stroke="#000000" stroke-width="1.5" d="M975,-201C975,-201 945,-201 945,-201 939,-201 933,-195 933,-189 933,-189 933,-177 933,-177 933,-171 939,-165 945,-165 945,-165 975,-165 975,-165 981,-165 987,-171 987,-177 987,-177 987,-189 987,-189 987,-195 981,-201 975,-201"/>
<text text-anchor="middle" x="960" y="-178.8" font-family="Verdana" font-size="14.00" fill="#000000">New</text>
</a>
</g>
</g>
<!-- go_server/examples/minimal.main&#45;&gt;log/slog.New -->
<g id="edge10" class="edge">
<title>go_server/examples/minimal.main&#45;&gt;log/slog.New</title>
<g id="a_edge10"><a xlink:title="at main.go:13: calling [log/slog.New]">
<path fill="none" stroke="#8b4513" d="M870.4977,-281.0781C885.3975,-269.0799 904.6805,-252.5868 920,-236.2 927.7744,-227.884 935.4888,-218.09 942.0382,-209.187"/>
<polygon fill="#8b4513" stroke="#8b4513" points="944.9277,-211.1638 947.9244,-201.0015 939.2445,-207.077 944.9277,-211.1638"/>
</a>
</g>
</g>
<!-- (*log/slog.Logger).Info -->
<g id="node10" class="node">
<title>(*log/slog.Logger).Info</title>
<g id="a_node10"><a xlink:title="(*log/slog.Logger).Info | defined in logger.go:208">
<path fill="#adedad" stroke="#000000" stroke-width="1.5" d="M1107.5711,-201C1107.5711,-201 1024.4289,-201 1024.4289,-201 1018.4289,-201 1012.4289,-195 1012.4289,-189 1012.4289,-189 1012.4289,-177 1012.4289,-177 1012.4289,-171 1018.4289,-165 1024.4289,-165 1024.4289,-165 1107.5711,-165 1107.5711,-165 1113.5711,-165 1119.5711,-171 1119.5711,-177 1119.5711,-177 1119.5711,-189 1119.5711,-189 1119.5711,-195 1113.5711,-201 1107.5711,-201"/>
<text text-anchor="middle" x="1066" y="-178.8" font-family="Verdana" font-size="14.00" fill="#000000">(*Logger).Info</text>
</a>
</g>
</g>
<!-- go_server/examples/minimal.main&#45;&gt;(*log/slog.Logger).Info -->
<g id="edge6" class="edge">
<title>go_server/examples/minimal.main&#45;&gt;(*log/slog.Logger).Info</title>
<g id="a_edge6"><a xlink:title="at main.go:24: calling [(*log/slog.Logger).Info]">
<path fill="none" stroke="#8b4513" d="M871.9962,-281.0925C876.5313,-278.2294 881.3125,-275.4696 886,-273.2 933.9441,-249.986 953.154,-261.5572 1000,-236.2 1014.1967,-228.5155 1028.3443,-217.6494 1039.8786,-207.739"/>
<polygon fill="#8b4513" stroke="#8b4513" points="1042.2376,-210.3251 1047.4148,-201.0814 1037.6031,-205.079 1042.2376,-210.3251"/>
</a>
</g>
</g>
<!-- (*log/slog.Logger).Error -->
<g id="node11" class="node">
<title>(*log/slog.Logger).Error</title>
<g id="a_node11"><a xlink:title="(*log/slog.Logger).Error | defined in logger.go:228">
<path fill="#adedad" stroke="#000000" stroke-width="1.5" d="M1246.7836,-201C1246.7836,-201 1157.2164,-201 1157.2164,-201 1151.2164,-201 1145.2164,-195 1145.2164,-189 1145.2164,-189 1145.2164,-177 1145.2164,-177 1145.2164,-171 1151.2164,-165 1157.2164,-165 1157.2164,-165 1246.7836,-165 1246.7836,-165 1252.7836,-165 1258.7836,-171 1258.7836,-177 1258.7836,-177 1258.7836,-189 1258.7836,-189 1258.7836,-195 1252.7836,-201 1246.7836,-201"/>
<text text-anchor="middle" x="1202" y="-178.8" font-family="Verdana" font-size="14.00" fill="#000000">(*Logger).Error</text>
</a>
</g>
</g>
<!-- go_server/examples/minimal.main&#45;&gt;(*log/slog.Logger).Error -->
<g id="edge11" class="edge">
<title>go_server/examples/minimal.main&#45;&gt;(*log/slog.Logger).Error</title>
<g id="a_edge11"><a xlink:title="at main.go:26: calling [(*log/slog.Logger).Error]">
<path fill="none" stroke="#8b4513" d="M870.8554,-280.955C875.667,-277.9632 880.8382,-275.194 886,-273.2 989.1351,-233.3584 1030.1465,-279.2124 1132,-236.2 1148.0337,-229.429 1163.6714,-218.1356 1176.085,-207.6917"/>
<polygon fill="#8b4513" stroke="#8b4513" points="1178.5131,-210.2181 1183.7487,-201.0072 1173.9119,-204.9428 1178.5131,-210.2181"/>
</a>
</g>
</g>
<!-- os.Exit -->
<g id="node14" class="node">
<title>os.Exit</title>
<g id="a_node14"><a xlink:title="os.Exit | defined in proc.go:62">
<path fill="#adedad" stroke="#000000" stroke-width="1.5" d="M1326,-201C1326,-201 1296,-201 1296,-201 1290,-201 1284,-195 1284,-189 1284,-189 1284,-177 1284,-177 1284,-171 1290,-165 1296,-165 1296,-165 1326,-165 1326,-165 1332,-165 1338,-171 1338,-177 1338,-177 1338,-189 1338,-189 1338,-195 1332,-201 1326,-201"/>
<text text-anchor="middle" x="1311" y="-178.8" font-family="Verdana" font-size="14.00" fill="#000000">Exit</text>
</a>
</g>
</g>
<!-- go_server/examples/minimal.main&#45;&gt;os.Exit -->
<g id="edge12" class="edge">
<title>go_server/examples/minimal.main&#45;&gt;os.Exit</title>
<g id="a_edge12"><a xlink:title="at main.go:27: calling [os.Exit]">
<path fill="none" stroke="#8b4513" d="M870.3472,-280.9913C875.2851,-277.9173 880.633,-275.1085 886,-273.2 1048.7973,-215.3083 1123.3068,-322.4924 1273,-236.2 1283.4649,-230.1674 1291.7961,-219.9566 1297.959,-210.0841"/>
<polygon fill="#8b4513" stroke="#8b4513" points="1301.0886,-211.6616 1303.0083,-201.2421 1295.0099,-208.1903 1301.0886,-211.6616"/>
</a>
</g>
</g>
<!-- (net/http.HandlerFunc).ServeHTTP -->
<g id="node12" class="node">
<title>(net/http.HandlerFunc).ServeHTTP</title>
<g id="a_node12"><a xlink:title="(net/http.HandlerFunc).ServeHTTP | defined in server.go:2285&#10;at server.go:2286: calling [go_server/examples/minimal.main$1]">
<path fill="#adedad" stroke="#000000" stroke-width="1.5" d="M1064.2723,-317.2C1064.2723,-317.2 911.7277,-317.2 911.7277,-317.2 905.7277,-317.2 899.7277,-311.2 899.7277,-305.2 899.7277,-305.2 899.7277,-293.2 899.7277,-293.2 899.7277,-287.2 905.7277,-281.2 911.7277,-281.2 911.7277,-281.2 1064.2723,-281.2 1064.2723,-281.2 1070.2723,-281.2 1076.2723,-287.2 1076.2723,-293.2 1076.2723,-293.2 1076.2723,-305.2 1076.2723,-305.2 1076.2723,-311.2 1070.2723,-317.2 1064.2723,-317.2"/>
<text text-anchor="middle" x="988" y="-295" font-family="Verdana" font-size="14.00" fill="#000000">(HandlerFunc).ServeHTTP</text>
</a>
</g>
</g>
<!-- (net/http.HandlerFunc).ServeHTTP&#45;&gt;go_server/examples/minimal.main$1 -->
<g id="edge1" class="edge">
<title>(net/http.HandlerFunc).ServeHTTP&#45;&gt;go_server/examples/minimal.main$1</title>
<g id="a_edge1"><a xlink:title="at server.go:2286: calling [go_server/examples/minimal.main$1]">
<path fill="none" stroke="#8b4513" stroke-dasharray="5,2" d="M1053.7659,-281.1352C1065.4502,-278.2508 1077.5447,-275.4728 1089,-273.2 1146.8915,-261.714 1300.4839,-265.0002 1352,-236.2 1363.2473,-229.9121 1372.8078,-219.5231 1380.1147,-209.5865"/>
<polygon fill="#8b4513" stroke="#8b4513" points="1383.1749,-211.3124 1385.9414,-201.0852 1377.4009,-207.3549 1383.1749,-211.3124"/>
</a>
</g>
</g>
<!-- (*net/http.http2serverConn).runHandler -->
<g id="node13" class="node">
<title>(*net/http.http2serverConn).runHandler</title>
<g id="a_node13"><a xlink:title="(*net/http.http2serverConn).runHandler | defined in h2_bundle.go:6387&#10;at h2_bundle.go:6412: calling [go_server/examples/minimal.main$1]">
<path fill="#adedad" stroke="#000000" stroke-width=".5" d="M1290.3816,-317.2C1290.3816,-317.2 1113.6184,-317.2 1113.6184,-317.2 1107.6184,-317.2 1101.6184,-311.2 1101.6184,-305.2 1101.6184,-305.2 1101.6184,-293.2 1101.6184,-293.2 1101.6184,-287.2 1107.6184,-281.2 1113.6184,-281.2 1113.6184,-281.2 1290.3816,-281.2 1290.3816,-281.2 1296.3816,-281.2 1302.3816,-287.2 1302.3816,-293.2 1302.3816,-293.2 1302.3816,-305.2 1302.3816,-305.2 1302.3816,-311.2 1296.3816,-317.2 1290.3816,-317.2"/>
<text text-anchor="middle" x="1202" y="-295" font-family="Verdana" font-size="14.00" fill="#000000">(*http2serverConn).runHandler</text>
</a>
</g>
</g>
<!-- (*net/http.http2serverConn).runHandler&#45;&gt;go_server/examples/minimal.main$1 -->
<g id="edge2" class="edge">
<title>(*net/http.http2serverConn).runHandler&#45;&gt;go_server/examples/minimal.main$1</title>
<g id="a_edge2"><a xlink:title="at h2_bundle.go:6412: calling [go_server/examples/minimal.main$1]">
<path fill="none" stroke="#8b4513" stroke-dasharray="5,2" d="M1263.1776,-281.0739C1291.8557,-270.7533 1325.4675,-255.901 1352,-236.2 1361.8726,-228.8694 1370.8989,-218.8701 1378.1715,-209.5185"/>
<polygon fill="#8b4513" stroke="#8b4513" points="1381.1888,-211.3255 1384.3315,-201.2075 1375.565,-207.1573 1381.1888,-211.3255"/>
</a>
</g>
</g>
<!-- (reflect.Value).Call -->
<g id="node15" class="node">
<title>(reflect.Value).Call</title>
<g id="a_node15"><a xlink:title="(reflect.Value).Call | defined in value.go:366&#10;at .:0: calling [go_server/examples/minimal.main$1]">
<path fill="#adedad" stroke="#000000" stroke-width="1.5" d="M1408.5809,-317.2C1408.5809,-317.2 1339.4191,-317.2 1339.4191,-317.2 1333.4191,-317.2 1327.4191,-311.2 1327.4191,-305.2 1327.4191,-305.2 1327.4191,-293.2 1327.4191,-293.2 1327.4191,-287.2 1333.4191,-281.2 1339.4191,-281.2 1339.4191,-281.2 1408.5809,-281.2 1408.5809,-281.2 1414.5809,-281.2 1420.5809,-287.2 1420.5809,-293.2 1420.5809,-293.2 1420.5809,-305.2 1420.5809,-305.2 1420.5809,-311.2 1414.5809,-317.2 1408.5809,-317.2"/>
<text text-anchor="middle" x="1374" y="-295" font-family="Verdana" font-size="14.00" fill="#000000">(Value).Call</text>
</a>
</g>
</g>
<!-- (reflect.Value).Call&#45;&gt;go_server/examples/minimal.main$1 -->
<g id="edge13" class="edge">
<title>(reflect.Value).Call&#45;&gt;go_server/examples/minimal.main$1</title>
<g id="a_edge13"><a xlink:title="at .:0: calling [go_server/examples/minimal.main$1]">
<path fill="none" stroke="#8b4513" d="M1377.4375,-281.0438C1380.9893,-262.2835 1386.5801,-232.7543 1390.6985,-211.0015"/>
<polygon fill="#8b4513" stroke="#8b4513" points="1394.1652,-211.5053 1392.5866,-201.0288 1387.2874,-210.2031 1394.1652,-211.5053"/>
</a>
</g>
</g>
</g>
</svg>
